<?xml version="1.0" encoding="UTF-8"?>
<svg version="1.1" xmlns="http://www.w3.org/2000/svg" width="28" height="28">
<path d="M0 0 C3.31898255 2.56614016 5.40841981 4.87861536 6.2890625 8.98828125 C5.99915658 13.19191703 5.64051332 15.46110502 3.2890625 18.98828125 C2.2990625 18.65828125 1.3090625 18.32828125 0.2890625 17.98828125 C0.6190625 16.99828125 0.9490625 16.00828125 1.2890625 14.98828125 C1.44660954 13.0315057 1.44660954 13.0315057 1.4140625 10.98828125 C1.41664062 10.30765625 1.41921875 9.62703125 1.421875 8.92578125 C1.35537376 6.76953344 1.35537376 6.76953344 0.2890625 3.98828125 C-2.38737707 3.09613473 -3.96478128 2.85287914 -6.7109375 2.86328125 C-7.3915625 2.86070312 -8.0721875 2.858125 -8.7734375 2.85546875 C-10.92968531 2.92196999 -10.92968531 2.92196999 -13.7109375 3.98828125 C-14.94745018 7.6978193 -14.77750572 11.13472083 -14.7109375 14.98828125 C-14.7109375 16.30828125 -14.7109375 17.62828125 -14.7109375 18.98828125 C-17.7109375 17.98828125 -17.7109375 17.98828125 -18.9609375 15.86328125 C-19.94111694 12.10592673 -19.70017954 9.74740099 -18.7109375 5.98828125 C-16.81691338 2.78525976 -14.54128338 0.49085902 -11.3359375 -1.44921875 C-7.23213906 -2.32860413 -3.68860509 -2.18116146 0 0 Z " fill="#A2CC39" transform="translate(20.7109375,3.01171875)"/>
<path d="M0 0 C3.96 0 7.92 0 12 0 C12 1.32 12 2.64 12 4 C4.73846154 5.35384615 4.73846154 5.35384615 1 3.5625 C0.34 3.046875 -0.32 2.53125 -1 2 C-0.67 1.34 -0.34 0.68 0 0 Z " fill="#A2CC39" transform="translate(8,22)"/>
</svg>
